<svg width="120" height="120" viewBox="0 0 120 120" xmlns="http://www.w3.org/2000/svg">
  <defs>
    <linearGradient id="goldGradient" x1="0%" y1="0%" x2="100%" y2="100%">
      <stop offset="0%" style="stop-color:#D4AF37;stop-opacity:1" />
      <stop offset="50%" style="stop-color:#FFD700;stop-opacity:1" />
      <stop offset="100%" style="stop-color:#B8860B;stop-opacity:1" />
    </linearGradient>
    <linearGradient id="darkGradient" x1="0%" y1="0%" x2="100%" y2="100%">
      <stop offset="0%" style="stop-color:#2C3E50;stop-opacity:1" />
      <stop offset="100%" style="stop-color:#34495E;stop-opacity:1" />
    </linearGradient>
  </defs>
  
  <!-- Background Circle -->
  <circle cx="60" cy="60" r="58" fill="url(#goldGradient)" stroke="#B8860B" stroke-width="2"/>
  
  <!-- Letter P -->
  <path d="M25 25 L25 95 L30 95 L30 62 L50 62 C58 62 65 55 65 47 L65 40 C65 32 58 25 50 25 Z M30 30 L50 30 C55 30 60 35 60 40 L60 47 C60 52 55 57 50 57 L30 57 Z" fill="url(#darkGradient)"/>
  
  <!-- Letter D -->
  <path d="M75 25 L75 95 L80 95 L80 90 L90 90 C98 90 105 83 105 75 L105 40 C105 32 98 25 90 25 Z M80 30 L90 30 C95 30 100 35 100 40 L100 75 C100 80 95 85 90 85 L80 85 Z" fill="url(#darkGradient)"/>
  
  <!-- Data visualization elements -->
  <!-- Chart bars -->
  <rect x="35" y="70" width="3" height="15" fill="url(#goldGradient)" opacity="0.8"/>
  <rect x="40" y="65" width="3" height="20" fill="url(#goldGradient)" opacity="0.8"/>
  <rect x="45" y="72" width="3" height="13" fill="url(#goldGradient)" opacity="0.8"/>
  
  <!-- Data points -->
  <circle cx="85" cy="45" r="2" fill="url(#goldGradient)"/>
  <circle cx="90" cy="50" r="2" fill="url(#goldGradient)"/>
  <circle cx="95" cy="42" r="2" fill="url(#goldGradient)"/>
  
  <!-- Connecting lines -->
  <path d="M85 45 L90 50 L95 42" stroke="url(#goldGradient)" stroke-width="1.5" fill="none" opacity="0.8"/>
  
  <!-- Decorative dots -->
  <circle cx="20" cy="35" r="1.5" fill="url(#goldGradient)" opacity="0.6"/>
  <circle cx="25" cy="40" r="1" fill="url(#goldGradient)" opacity="0.4"/>
  <circle cx="30" cy="38" r="1.2" fill="url(#goldGradient)" opacity="0.5"/>
  
  <circle cx="100" cy="30" r="1.5" fill="url(#goldGradient)" opacity="0.6"/>
  <circle cx="95" cy="25" r="1" fill="url(#goldGradient)" opacity="0.4"/>
  <circle cx="105" cy="35" r="1.2" fill="url(#goldGradient)" opacity="0.5"/>
</svg>